<?xml version="1.0" encoding="utf-8"?>
<!-- Generator: Adobe Illustrator 22.1.0, SVG Export Plug-In . SVG Version: 6.00 Build 0)  -->
<svg version="1.1" id="master-artboard" xmlns="http://www.w3.org/2000/svg" xmlns:xlink="http://www.w3.org/1999/xlink" x="0px"
	 y="0px" viewBox="0 0 96 96" style="enable-background:new 0 0 96 96;" xml:space="preserve">
<style type="text/css">
	.st0{fill:#FFDD5F;}
	.st1{fill:#FF3977;}
	.st2{fill:#FFFFFF;}
	.st3{font-family:'MyriadPro-Regular';}
	.st4{font-size:35.953px;}
</style>
<path class="st0" d="M29.7,23.6v7.1h0.3l6.5,3V20.6l-6.5,3H29.7z"/>
<path class="st1" d="M28.5,21.4c-0.3,0-0.6,0.4-0.6,1v0.3v9V32c0,0.5,0.3,1,0.6,1c0.3,0,0.6-0.4,0.6-1v-0.3v-9v-0.3
	C29.1,21.8,28.9,21.4,28.5,21.4z"/>
<path class="st1" d="M64.6,10.2c0.2,0,0.4,0.1,0.6,0.1c0.1,0,0.2,0.1,0.4,0.1c0.2,0.1,0.4,0.1,0.6,0.2c0.1,0,0.2,0.1,0.4,0.1
	c0.2,0.1,0.4,0.1,0.6,0.2c0.1,0,0.2,0.1,0.3,0.1c0.3,0.1,0.6,0.2,0.9,0.3c0,0,0,0,0,0c0.3,0.1,0.6,0.2,0.9,0.3
	c0.1,0,0.2,0.1,0.3,0.1c0.2,0.1,0.4,0.2,0.6,0.2c0.1,0,0.2,0.1,0.3,0.1c0.2,0.1,0.4,0.2,0.5,0.2c0.1,0.1,0.2,0.1,0.3,0.2
	c0.2,0.1,0.3,0.2,0.5,0.2c0.1,0.1,0.2,0.1,0.3,0.2c0.2,0.1,0.3,0.2,0.5,0.2c0.1,0.1,0.2,0.1,0.3,0.2c0.2,0.1,0.3,0.2,0.5,0.3
	c0.1,0.1,0.2,0.1,0.3,0.2c0.2,0.1,0.3,0.2,0.5,0.3c0.1,0.1,0.2,0.1,0.3,0.2c0.2,0.1,0.4,0.2,0.6,0.4c0.1,0,0.1,0.1,0.2,0.1
	c0.2,0.2,0.5,0.3,0.7,0.4c0,0,0.1,0.1,0.1,0.1c0.2,0.1,0.4,0.2,0.6,0.4c0.1,0.1,0.1,0.1,0.2,0.2c0.1,0.1,0.3,0.2,0.4,0.3
	c0.1,0.1,0.2,0.1,0.3,0.2c0.1,0.1,0.3,0.2,0.4,0.3c0.1,0.1,0.2,0.1,0.3,0.2c0.1,0.1,0.3,0.2,0.4,0.3c0.1,0.1,0.2,0.1,0.2,0.2
	c0.1,0.1,0.3,0.2,0.4,0.3c0.1,0.1,0.1,0.1,0.2,0.2c0.1,0.1,0.3,0.2,0.4,0.3c0.1,0.1,0.1,0.1,0.2,0.2c0.1,0.1,0.3,0.2,0.4,0.3
	c0.1,0,0.1,0.1,0.1,0.1c0.4,0.3,0.7,0.6,1.1,0.9c0,0,0.1,0.1,0.1,0.1c0.1,0.1,0.3,0.2,0.4,0.3c0.1,0,0.1,0.1,0.1,0.1
	c0.1,0.1,0.2,0.2,0.3,0.3c0.1,0,0.1,0.1,0.1,0.1c0.1,0.1,0.2,0.2,0.3,0.3c0.1,0,0.1,0.1,0.1,0.1c0.1,0.1,0.2,0.2,0.3,0.3
	c0,0,0.1,0.1,0.1,0.1c0.1,0.1,0.2,0.2,0.3,0.3c0,0,0.1,0.1,0.1,0.1c0.1,0.1,0.2,0.2,0.3,0.3c0,0,0.1,0,0.1,0.1c0,0,0,0,0,0l2.3-8
	c0.6-2.3,0.7-4.1,0.2-5.5c-0.8-2.3-3.1-2.4-3.3-2.4l-19.6,4.5c0.1,0,0.2,0,0.3,0.1C64.3,10.1,64.4,10.1,64.6,10.2z"/>
<path class="st0" d="M26.7,23.6h0.6v7.1h-0.6V23.6z"/>
<path class="st1" d="M3.5,23.9c-1.1,0-2.1,1.6-2.1,3.5S2.4,31,3.5,31c0.9,0,1.7-0.9,1.9-2.5c0.1-0.4,0.1-0.8,0.1-1.1
	c0-0.3,0-0.7-0.1-1.1C5.2,24.9,4.4,23.9,3.5,23.9z"/>
<path class="st2" d="M12.1,13.5v8.2v11v8.2c3.8-0.9,7-4.7,8.1-9.8c0.2-1.1,0.4-2.2,0.4-3.4c0-0.2,0-0.3,0-0.5c0-1.3-0.1-2.6-0.4-3.9
	C19.1,18.2,16,14.4,12.1,13.5z"/>
<path class="st1" d="M25.6,21.4c-0.3,0-0.6,0.4-0.6,1v0.3v9V32c0,0.5,0.3,1,0.6,1c0.3,0,0.6-0.4,0.6-1v-0.3v-9v-0.3
	C26.2,21.8,25.9,21.4,25.6,21.4z"/>
<path class="st1" d="M45.1,23.3c-1.2,0-2.2,1.7-2.2,3.8s1,3.8,2.2,3.8s2.2-1.7,2.2-3.8C47.3,25.1,46.4,23.3,45.1,23.3z"/>
<path class="st2" d="M5,26.8c0,0.1,0,0.3,0,0.4c0,0.1,0,0.3,0,0.4c0,0,0,0,0,0l6.6,3.7V23L5,26.8C5,26.8,5,26.8,5,26.8z"/>
<path class="st0" d="M20.9,23.7c0,0.3,0.1,0.5,0.1,0.7c0,0,0,0,0,0.1c0,0.3,0.1,0.5,0.1,0.8c0,0.1,0,0.1,0,0.2c0,0.3,0,0.5,0.1,0.8
	c0,0,0,0.1,0,0.1c0,0.3,0,0.5,0,0.8s0,0.5,0,0.8c0,0,0,0.1,0,0.1c0,0.3,0,0.5-0.1,0.8c0,0.1,0,0.1,0,0.2c0,0.3-0.1,0.5-0.1,0.8
	c0,0,0,0,0,0.1c0,0.3-0.1,0.5-0.1,0.7c0,0,0,0.1,0,0.1h3.6v-7.1h-3.6C20.9,23.7,20.9,23.7,20.9,23.7z"/>
<path class="st1" d="M63.7,44.4C63.7,44.4,63.7,44.4,63.7,44.4c-0.4,0.1-0.7,0.1-1.1,0.2c0,0-0.1,0-0.1,0v10.6
	c0.4,0.1,1.1-0.1,1.7-2.5l0.7-8.5c0,0-0.1,0-0.1,0C64.4,44.2,64.1,44.3,63.7,44.4z"/>
<path class="st1" d="M84,54.5c-5.2-8.1-5.9-14.4-5.7-17.9c-0.1,0-0.1,0.1-0.2,0.1c-0.1,0.1-0.2,0.2-0.3,0.3
	c-0.1,0.1-0.3,0.2-0.4,0.3c-0.1,0.1-0.2,0.2-0.3,0.3c-0.1,0.1-0.3,0.2-0.4,0.3c-0.1,0.1-0.2,0.2-0.3,0.2c-0.1,0.1-0.3,0.2-0.4,0.3
	c-0.1,0.1-0.2,0.2-0.3,0.2c-0.1,0.1-0.3,0.2-0.4,0.3C75.1,38.9,75,39,74.9,39c-0.1,0.1-0.3,0.2-0.4,0.3c-0.1,0.1-0.2,0.1-0.3,0.2
	c-0.2,0.1-0.3,0.2-0.5,0.3c-0.1,0.1-0.2,0.1-0.3,0.2c-0.2,0.1-0.5,0.3-0.7,0.4c0,0,0,0-0.1,0c-0.3,0.1-0.5,0.3-0.8,0.4
	c-0.1,0-0.1,0.1-0.2,0.1c-0.2,0.1-0.3,0.2-0.5,0.3c-0.1,0-0.2,0.1-0.3,0.1c-0.1,0.1-0.3,0.2-0.5,0.2c-0.1,0.1-0.2,0.1-0.3,0.1
	c-0.1,0.1-0.3,0.1-0.4,0.2c-0.1,0-0.2,0.1-0.3,0.1c-0.1,0.1-0.3,0.1-0.4,0.2c-0.1,0-0.2,0.1-0.3,0.1c-0.1,0.1-0.3,0.1-0.4,0.2
	c-0.1,0-0.2,0.1-0.3,0.1c-0.1,0.1-0.3,0.1-0.4,0.2c-0.1,0-0.2,0.1-0.3,0.1c-0.1,0-0.1,0-0.2,0.1c5.6,12.2,8.9,29.4,8.9,29.6l0,0.2
	l-0.1,0.2c-0.5,1.8-0.6,3.3-0.3,4.6c0.3,1.5,1.1,2.3,1.4,2.5l7.2-5.2H84c1.2,0.3,2.3,0.4,3.3,0.4l0,0c2.8,0,3.5-1.2,3.6-1.4
	C91.4,66.5,84.1,54.6,84,54.5z"/>
<path class="st2" d="M79.6,35.9c4-3.1,6.4-6,6.4-6l0,0c1-1,1.3-2.3,1.4-2.7c-0.1-0.4-0.4-1.7-1.4-2.7l0,0c0,0-0.6-0.8-1.8-1.9
	c-3.3-3.2-12-10.9-23-11.9c-0.8-0.1-1.7-0.1-2.5-0.1c-7.6,0-14.9,3.3-21.7,9.7v13.9c6.8,6.4,14.1,9.7,21.7,9.7l0,0
	c1.1,0,2.3-0.1,3.5-0.2c1-0.1,2-0.3,3-0.5c0.7-0.2,1.3-0.3,2-0.5c4-1.2,7.9-3.3,11.7-6.1C79.1,36.3,79.4,36.1,79.6,35.9z M45.1,32
	c-1.5,0-2.8-2.1-2.8-4.8c0-2.6,1.3-4.8,2.8-4.8c1.5,0,2.8,2.1,2.8,4.8C47.9,29.8,46.7,32,45.1,32z M55.9,32c-1.5,0-2.8-2.1-2.8-4.8
	c0-2.6,1.3-4.8,2.8-4.8c1.5,0,2.8,2.1,2.8,4.8C58.6,29.8,57.4,32,55.9,32z M66.6,32c-1.5,0-2.8-2.1-2.8-4.8c0-2.6,1.3-4.8,2.8-4.8
	s2.8,2.1,2.8,4.8C69.4,29.8,68.2,32,66.6,32z M72.3,26.7H82v1h-9.7V26.7z"/>
<path class="st1" d="M55.9,23.3c-1.2,0-2.2,1.7-2.2,3.8s1,3.8,2.2,3.8s2.2-1.7,2.2-3.8C58.1,25.1,57.1,23.3,55.9,23.3z"/>
<path class="st1" d="M66.6,23.3c-1.2,0-2.2,1.7-2.2,3.8s1,3.8,2.2,3.8s2.2-1.7,2.2-3.8C68.8,25.1,67.8,23.3,66.6,23.3z"/>
<path d="M84.7,54.5c-5.3-8.3-5.8-14.5-5.5-17.6c3.8-3,6.1-5.7,6.3-6c1.3-1.3,1.6-3.3,1.6-3.4l0-0.1l0-0.1c0-0.1-0.3-2.1-1.6-3.4
	c-0.1-0.1-0.6-0.7-1.5-1.7l2.2-8.1c0.7-2.6,0.8-4.8,0.2-6.4c-1-2.8-3.6-2.9-3.8-2.9h0L60.8,9.9c-0.8-0.1-1.7-0.1-2.5-0.1
	c-7.6,0-14.9,3.4-21.8,10l-6.6,3.2h-0.2v-0.3c0-1.1-0.5-2-1.1-2c-0.6,0-1.1,0.9-1.1,2v0.3h-0.6v-0.3c0-1.1-0.5-2-1.1-2
	c-0.6,0-1.1,0.9-1.1,2v0.3h-3.7c-1.2-5.4-4.6-9.4-8.6-10.2l-0.3-0.1v9.6l-6.7,3.9c-0.3-0.9-0.8-1.4-1.4-1.4c-0.9,0-1.6,1.2-1.6,2.8
	s0.7,2.8,1.6,2.8c0.6,0,1.1-0.6,1.4-1.4l6.7,3.9v9.6l0.3-0.1c4-0.8,7.4-4.8,8.6-10.2h3.7v0.3c0,1.1,0.5,2,1.1,2c0.6,0,1.1-0.9,1.1-2
	v-0.3h0.6v0.3c0,1.1,0.5,2,1.1,2c0.6,0,1.1-0.9,1.1-2v-0.3h0.2l6.6,3.2c6.8,6.6,14.2,10,21.8,10l0,0c1,0,2.1-0.1,3.2-0.2v11.2
	l0.2,0.1c0,0,0.2,0.1,0.5,0.1l0,0c0.5,0,1.5-0.4,2.1-3.2l0.7-8.9c0.5-0.1,1.1-0.3,1.6-0.4c5.3,11.5,8.6,27.6,9,29.5
	c-0.5,1.9-0.6,3.7-0.3,5.2c0.5,2.2,1.7,3.1,1.8,3.2l0.1,0.1l7.2-5.3c1.2,0.3,2.3,0.4,3.2,0.4l0,0c3.5,0,4.1-1.8,4.1-2l0-0.1v-0.1
	C92.3,66.9,85,55,84.7,54.5z M4.7,27.9c-0.1,0.7-0.5,1.2-1,1.2c-0.6,0-1-0.8-1-1.8c0-1,0.5-1.8,1-1.8c0.4,0,0.8,0.5,1,1.2
	c0,0.2,0.1,0.4,0.1,0.6C4.8,27.5,4.7,27.7,4.7,27.9z M11.8,31.5l-6.5-3.7c0,0,0,0,0,0c0-0.1,0-0.3,0-0.4c0-0.1,0-0.3,0-0.4
	c0,0,0,0,0,0l6.5-3.7V31.5z M20.7,27.9c0,1.2-0.2,2.3-0.4,3.4c-1.1,5.1-4.2,8.9-7.9,9.8v-8.2v-11v-8.2c3.8,0.9,6.9,4.7,7.9,9.8
	c0.3,1.2,0.4,2.6,0.4,3.9C20.7,27.5,20.7,27.7,20.7,27.9z M24.5,30.9H21c0,0,0-0.1,0-0.1c0-0.3,0.1-0.5,0.1-0.7c0,0,0,0,0-0.1
	c0-0.3,0.1-0.5,0.1-0.8c0-0.1,0-0.1,0-0.2c0-0.3,0-0.5,0.1-0.8c0,0,0-0.1,0-0.1c0-0.3,0-0.5,0-0.8s0-0.5,0-0.8c0,0,0-0.1,0-0.1
	c0-0.3,0-0.5-0.1-0.8c0-0.1,0-0.1,0-0.2c0-0.3-0.1-0.5-0.1-0.8c0,0,0,0,0-0.1c0-0.3-0.1-0.5-0.1-0.7c0,0,0-0.1,0-0.1h3.5V30.9z
	 M26.2,22.9v9v0.3c0,0.5-0.3,1-0.6,1c-0.3,0-0.6-0.4-0.6-1v-0.3v-9v-0.3c0-0.5,0.3-1,0.6-1c0.3,0,0.6,0.4,0.6,1V22.9z M27.4,30.9
	h-0.6v-7.1h0.6V30.9z M29.1,22.9v9v0.3c0,0.5-0.3,1-0.6,1c-0.3,0-0.6-0.4-0.6-1v-0.3v-9v-0.3c0-0.5,0.3-1,0.6-1c0.3,0,0.6,0.4,0.6,1
	V22.9z M36.3,33.9l-6.4-3h-0.2v-7.1h0.3l6.4-3L36.3,33.9L36.3,33.9z M82.6,5.8c0.2,0,2.4,0.2,3.3,2.4c0.5,1.3,0.4,3.2-0.2,5.5
	l-2.2,8c0,0,0,0,0,0c0,0-0.1,0-0.1-0.1c-0.1-0.1-0.2-0.2-0.3-0.3c0,0-0.1-0.1-0.1-0.1c-0.1-0.1-0.2-0.2-0.3-0.3c0,0-0.1-0.1-0.1-0.1
	c-0.1-0.1-0.2-0.2-0.3-0.3c-0.1,0-0.1-0.1-0.1-0.1c-0.1-0.1-0.2-0.2-0.3-0.3c-0.1,0-0.1-0.1-0.1-0.1c-0.1-0.1-0.2-0.2-0.3-0.3
	c-0.1,0-0.1-0.1-0.1-0.1c-0.1-0.1-0.3-0.2-0.4-0.3c0,0-0.1-0.1-0.1-0.1c-0.3-0.3-0.7-0.6-1-0.9c-0.1,0-0.1-0.1-0.1-0.1
	c-0.1-0.1-0.3-0.2-0.4-0.3c-0.1-0.1-0.1-0.1-0.2-0.2c-0.1-0.1-0.2-0.2-0.4-0.3c-0.1-0.1-0.1-0.1-0.2-0.2c-0.1-0.1-0.2-0.2-0.4-0.3
	c-0.1-0.1-0.2-0.1-0.2-0.2c-0.1-0.1-0.3-0.2-0.4-0.3c-0.1-0.1-0.2-0.1-0.3-0.2c-0.1-0.1-0.3-0.2-0.4-0.3c-0.1-0.1-0.2-0.1-0.3-0.2
	c-0.1-0.1-0.3-0.2-0.4-0.3c-0.1-0.1-0.1-0.1-0.2-0.2c-0.2-0.1-0.4-0.3-0.6-0.4c0,0-0.1-0.1-0.1-0.1c-0.2-0.2-0.5-0.3-0.7-0.4
	c-0.1,0-0.1-0.1-0.2-0.1c-0.2-0.1-0.4-0.2-0.6-0.4c-0.1-0.1-0.2-0.1-0.3-0.2c-0.2-0.1-0.3-0.2-0.5-0.3c-0.1-0.1-0.2-0.1-0.3-0.2
	c-0.2-0.1-0.3-0.2-0.5-0.3c-0.1-0.1-0.2-0.1-0.3-0.2c-0.2-0.1-0.3-0.2-0.5-0.2c-0.1-0.1-0.2-0.1-0.3-0.2c-0.2-0.1-0.3-0.2-0.5-0.2
	c-0.1-0.1-0.2-0.1-0.3-0.2c-0.2-0.1-0.3-0.2-0.5-0.2c-0.1,0-0.2-0.1-0.3-0.1c-0.2-0.1-0.4-0.2-0.6-0.2c-0.1,0-0.2-0.1-0.3-0.1
	c-0.3-0.1-0.6-0.2-0.9-0.3c0,0,0,0,0,0c-0.3-0.1-0.6-0.2-0.9-0.3c-0.1,0-0.2-0.1-0.3-0.1c-0.2-0.1-0.4-0.1-0.6-0.2
	c-0.1,0-0.2-0.1-0.3-0.1c-0.2-0.1-0.4-0.1-0.6-0.2c-0.1,0-0.2-0.1-0.4-0.1c-0.2,0-0.4-0.1-0.6-0.1c-0.1,0-0.3-0.1-0.4-0.1
	c-0.1,0-0.2,0-0.3-0.1L82.6,5.8z M63.6,52.8c-0.5,2.4-1.3,2.6-1.7,2.5V44.7c0,0,0.1,0,0.1,0c0.3,0,0.6-0.1,1-0.2c0,0,0.1,0,0.1,0
	c0.3-0.1,0.7-0.1,1-0.2c0,0,0.1,0,0.1,0L63.6,52.8z M64.6,43.3c-1,0.2-1.9,0.4-2.9,0.5C60.5,44,59.4,44,58.3,44l0,0
	c-7.5,0-14.7-3.3-21.4-9.7V20.4c6.7-6.4,13.9-9.7,21.4-9.7c0.8,0,1.7,0,2.5,0.1c10.9,1.1,19.5,8.7,22.7,11.9
	c1.1,1.1,1.7,1.9,1.7,1.9l0,0c1,1,1.3,2.3,1.4,2.7c-0.1,0.4-0.4,1.7-1.4,2.7l0,0c0,0-2.4,2.9-6.3,6c-0.3,0.2-0.5,0.4-0.8,0.6
	c-3.8,2.8-7.6,4.9-11.5,6.1C65.9,42.9,65.2,43.1,64.6,43.3z M91.1,74.4c-0.1,0.2-0.8,1.4-3.6,1.4l0,0c-0.9,0-2-0.1-3.3-0.4h-0.1
	L77,80.7c-0.3-0.2-1-1-1.4-2.5c-0.3-1.3-0.2-2.9,0.3-4.6l0.1-0.2l0-0.2c0-0.2-3.3-17.3-8.9-29.6c0.1,0,0.1,0,0.2-0.1
	c0.1,0,0.2-0.1,0.3-0.1c0.1,0,0.3-0.1,0.4-0.2c0.1,0,0.2-0.1,0.3-0.1c0.1-0.1,0.3-0.1,0.4-0.2c0.1,0,0.2-0.1,0.3-0.1
	c0.1-0.1,0.3-0.1,0.4-0.2c0.1,0,0.2-0.1,0.3-0.1c0.1-0.1,0.3-0.1,0.4-0.2c0.1,0,0.2-0.1,0.3-0.1c0.1-0.1,0.3-0.2,0.5-0.2
	c0.1,0,0.2-0.1,0.3-0.1c0.2-0.1,0.3-0.2,0.5-0.3c0.1,0,0.1-0.1,0.2-0.1c0.3-0.1,0.5-0.3,0.8-0.4c0,0,0,0,0.1,0
	c0.2-0.1,0.5-0.3,0.7-0.4c0.1,0,0.2-0.1,0.3-0.2c0.2-0.1,0.3-0.2,0.5-0.3c0.1-0.1,0.2-0.1,0.3-0.2c0.1-0.1,0.3-0.2,0.4-0.3
	c0.1-0.1,0.2-0.1,0.3-0.2c0.1-0.1,0.3-0.2,0.4-0.3c0.1-0.1,0.2-0.2,0.3-0.2c0.1-0.1,0.3-0.2,0.4-0.3c0.1-0.1,0.2-0.2,0.3-0.2
	c0.1-0.1,0.3-0.2,0.4-0.3c0.1-0.1,0.2-0.2,0.3-0.3c0.1-0.1,0.3-0.2,0.4-0.3c0.1-0.1,0.2-0.2,0.3-0.3c0.1,0,0.1-0.1,0.2-0.1
	c-0.2,3.5,0.5,9.8,5.7,17.9C84.4,55.3,91.6,67.1,91.1,74.4z"/>
<path d="M44.5,21c-1.5,0-2.8,2.1-2.8,4.8c0,2.6,1.3,4.8,2.8,4.8c1.5,0,2.8-2.1,2.8-4.8C47.3,23.2,46.1,21,44.5,21z M44.5,29.6
	c-1.2,0-2.2-1.7-2.2-3.8s1-3.8,2.2-3.8s2.2,1.7,2.2,3.8S45.8,29.6,44.5,29.6z"/>
<path d="M55.3,21c-1.5,0-2.8,2.1-2.8,4.8c0,2.6,1.3,4.8,2.8,4.8s2.8-2.1,2.8-4.8C58.1,23.2,56.8,21,55.3,21z M55.3,29.6
	c-1.2,0-2.2-1.7-2.2-3.8s1-3.8,2.2-3.8s2.2,1.7,2.2,3.8S56.5,29.6,55.3,29.6z"/>
<path d="M65,21c-1.5,0-2.8,2.1-2.8,4.8c0,2.6,1.3,4.8,2.8,4.8s2.8-2.1,2.8-4.8C67.8,23.2,66.5,21,65,21z M65,29.6
	c-1.2,0-2.2-1.7-2.2-3.8s1-3.8,2.2-3.8s2.2,1.7,2.2,3.8S66.2,29.6,65,29.6z"/>
<path d="M71.7,25.3h9.7v1h-9.7V25.3z"/>
<text transform="matrix(0.8875 0 0 1 0 80.6541)" class="st3 st4">Dawi</text>
</svg>
