<?xml version="1.0" encoding="utf-8"?>
<svg id="master-artboard" viewBox="0 0 64 64" version="1.1" xmlns="http://www.w3.org/2000/svg" x="0px" y="0px" style="enable-background:new 0 0 1400 980;" width="64px" height="64px">
    <defs>
        
        <path id="text-path-0" d="M 778.8464965820312 213.4612274169922 A 100 18 0 0 1 988.3533935546875 213.4612274169922 A 100 18 0 0 1 778.8464965820312 213.4612274169922 Z" style="fill: none; stroke: red; stroke-width: 2;" />
        <path id="text-path-1" d="M 664.5464477539062 37.96122741699219 A 100 19 0 0 1 876.5812377929688 37.96122741699219 A 100 19 0 0 1 664.5464477539062 37.96122741699219" style="fill: none; stroke: red; stroke-width: 2;" />
        <path id="text-path-2" d="M 765.3650512695312 211.70851135253906 A 100 17 0 0 1 991.5017700195312 211.70851135253906 A 100 17 0 0 1 765.3650512695312 211.70851135253906" style="fill: none; stroke: red; stroke-width: 2;" />
        <path id="path-1" d="M 765.3650512695312 211.70851135253906 A 100 17 0 0 1 991.5017700195312 211.70851135253906 A 100 17 0 0 1 765.3650512695312 211.70851135253906" style="fill: none; stroke: red; stroke-width: 2;" />
        <linearGradient id="gradient-0" gradientUnits="userSpaceOnUse" x1="654" y1="1202.7000732421875" x2="654" y2="1309.199951171875">
            <stop offset="0" style="stop-color: #69ffc1" />
            <stop offset="1" style="stop-color: #03ff96" />
        </linearGradient>
    </defs>
    <rect id="ee-background" x="0" y="0" width="64" height="64" style="fill: white; fill-opacity: 0; pointer-events: none;" />


    <g transform="matrix(0.5811156034469604, 0, 0, 0.5811156034469604, -347.8146700159369, -697.2062409101796)">
        <g id="g-1" transform="matrix(1, 0, 0, 1, 0, 0)">
            <g id="g-2">
                <g>
                    <path class="st0" d="M654,1309.2l-37.7-15.6l-15.6-37.7l15.6-37.6l37.7-15.6l37.7,15.6l15.6,37.6l-15.6,37.7L654,1309.2z&#10;&#9;&#9;&#9;&#9; M620.9,1289.1l33.1,13.7l33.1-13.7l13.7-33.1l-13.7-33.1l-33.1-13.7l-33.1,13.7l-13.7,33.1L620.9,1289.1z" style="fill: rgb(59, 255, 196); stroke: rgb(137, 180, 149); paint-order: stroke; stroke-width: 7;" />
                </g>
            </g>
        </g>
    </g>
    <path d="M 6 16.31999969482422 C 6.986666679382324 16.31999969482422 7.880000114440918 16.253334045410156 8.680000305175781 16.1200008392334 C 9.479999542236328 15.979999542236328 10.243332862854004 15.739999771118164 10.970000267028809 15.399999618530273 C 11.696666717529297 15.059999465942383 12.306666374206543 14.619999885559082 12.800000190734863 14.079999923706055 C 13.293333053588867 13.539999961853027 13.683333396911621 12.84666633605957 13.970000267028809 12 C 14.256667137145996 11.15333366394043 14.399999618530273 10.176666259765625 14.399999618530273 9.069999694824219 C 14.399999618530273 8.243332862854004 14.319999694824219 7.489999771118164 14.15999984741211 6.810000419616699 C 14 6.136666297912598 13.783333778381348 5.560000419616699 13.510000228881836 5.079999923706055 C 13.229999542236328 4.600000381469727 12.880000114440918 4.176666259765625 12.460000038146973 3.810000419616699 C 12.046667098999023 3.4499998092651367 11.606666564941406 3.1599998474121094 11.140000343322754 2.939999580383301 C 10.673333168029785 2.7200002670288086 10.146666526794434 2.543333053588867 9.5600004196167 2.4099998474121094 C 8.973333358764648 2.2766666412353516 8.399999618530273 2.186666488647461 7.840000152587891 2.140000343322754 C 7.28000020980835 2.086667060852051 6.666666507720947 2.060000419616699 6 2.060000419616699 L 6 16.31999969482422 M 0.38999998569488525 2.0399999618530273 L 0.38999998569488525 0.3600006103515625 L 5.679999828338623 0.3600006103515625 C 6.946666717529297 0.3600006103515625 8.123332977294922 0.4400005340576172 9.210000038146973 0.6000003814697266 C 10.289999961853027 0.7600002288818359 11.34666633605957 1.0466670989990234 12.380000114440918 1.4599990844726562 C 13.40666675567627 1.8666667938232422 14.283333778381348 2.3933334350585938 15.010000228881836 3.0399999618530273 C 15.729999542236328 3.6800003051757812 16.309999465942383 4.513333320617676 16.75 5.539999961853027 C 17.183332443237305 6.566666603088379 17.399999618530273 7.743332862854004 17.399999618530273 9.069999694824219 C 17.399999618530273 10.323333740234375 17.219999313354492 11.446666717529297 16.860000610351562 12.440000534057617 C 16.5 13.433333396911621 15.99666690826416 14.273333549499512 15.350000381469727 14.960000038146973 C 14.696666717529297 15.65333366394043 13.899999618530273 16.226667404174805 12.960000038146973 16.68000030517578 C 12.013333320617676 17.139999389648438 10.973333358764648 17.47333335876465 9.84000015258789 17.68000030517578 C 8.706666946411133 17.893333435058594 7.4666666984558105 18 6.119999885559082 18 L 0.38999998569488525 18 L 0.38999998569488525 16.31999969482422 L 3.2300000190734863 16.31999969482422 L 3.2300000190734863 2.0399999618530273 L 0.38999998569488525 2.0399999618530273 ZM 22.80362892150879 16.31999969482422 C 23.790294647216797 16.31999969482422 24.68362808227539 16.253334045410156 25.48362922668457 16.1200008392334 C 26.283628463745117 15.979999542236328 27.04696273803711 15.739999771118164 27.77362823486328 15.399999618530273 C 28.500295639038086 15.059999465942383 29.110294342041016 14.619999885559082 29.60363006591797 14.079999923706055 C 30.096961975097656 13.539999961853027 30.486961364746094 12.84666633605957 30.77362823486328 12 C 31.06029510498047 11.15333366394043 31.203628540039062 10.176666259765625 31.203628540039062 9.069999694824219 C 31.203628540039062 8.243332862854004 31.123628616333008 7.489999771118164 30.9636287689209 6.810000419616699 C 30.80362892150879 6.136666297912598 30.586963653564453 5.560000419616699 30.313629150390625 5.079999923706055 C 30.033628463745117 4.600000381469727 29.68362808227539 4.176666259765625 29.263629913330078 3.810000419616699 C 28.850296020507812 3.4499998092651367 28.410295486450195 3.1599998474121094 27.94363021850586 2.939999580383301 C 27.47696304321289 2.7200002670288086 26.950294494628906 2.543333053588867 26.363628387451172 2.4099998474121094 C 25.776962280273438 2.2766666412353516 25.203628540039062 2.186666488647461 24.64362907409668 2.140000343322754 C 24.083629608154297 2.086667060852051 23.470294952392578 2.060000419616699 22.80362892150879 2.060000419616699 L 22.80362892150879 16.31999969482422 M 17.193628311157227 2.0399999618530273 L 17.193628311157227 0.3600006103515625 L 22.48362922668457 0.3600006103515625 C 23.750295639038086 0.3600006103515625 24.92696189880371 0.4400005340576172 26.013629913330078 0.6000003814697266 C 27.0936279296875 0.7600002288818359 28.15029525756836 1.0466670989990234 29.18362808227539 1.4599990844726562 C 30.210296630859375 1.8666667938232422 31.086963653564453 2.3933334350585938 31.813629150390625 3.0399999618530273 C 32.53363037109375 3.6800003051757812 33.11362838745117 4.513333320617676 33.553627014160156 5.539999961853027 C 33.986961364746094 6.566666603088379 34.20362854003906 7.743332862854004 34.20362854003906 9.069999694824219 C 34.20362854003906 10.323333740234375 34.02362823486328 11.446666717529297 33.66362762451172 12.440000534057617 C 33.303627014160156 13.433333396911621 32.800296783447266 14.273333549499512 32.153629302978516 14.960000038146973 C 31.500295639038086 15.65333366394043 30.703628540039062 16.226667404174805 29.763629913330078 16.68000030517578 C 28.81696319580078 17.139999389648438 27.776962280273438 17.47333335876465 26.64362907409668 17.68000030517578 C 25.510295867919922 17.893333435058594 24.270296096801758 18 22.923629760742188 18 L 17.193628311157227 18 L 17.193628311157227 16.31999969482422 L 20.033628463745117 16.31999969482422 L 20.033628463745117 2.0399999618530273 L 17.193628311157227 2.0399999618530273 Z" transform="matrix(1.3161687850952148, 0, 0, 1.3161687850952148, 10.297309875488281, 21.40900421142578)" style="fill: rgb(6, 6, 5); white-space: pre; color: rgb(51, 51, 51);" />
</svg>
